<svg width="240" height="240" viewBox="0 0 240 240" fill="none" xmlns="http://www.w3.org/2000/svg">
<circle cx="120" cy="120" r="120" fill="#FE5A5B"/>
<path d="M38.7148 114.98L38.873 117.107C40.2207 115.455 42.043 114.629 44.3398 114.629C46.7891 114.629 48.4707 115.596 49.3848 117.529C50.7207 115.596 52.625 114.629 55.0977 114.629C57.1602 114.629 58.6953 115.232 59.7031 116.439C60.7109 117.635 61.2148 119.439 61.2148 121.854V134H56.1172V121.871C56.1172 120.793 55.9062 120.008 55.4844 119.516C55.0625 119.012 54.3184 118.76 53.252 118.76C51.7285 118.76 50.6738 119.486 50.0879 120.939L50.1055 134H45.0254V121.889C45.0254 120.787 44.8086 119.99 44.375 119.498C43.9414 119.006 43.2031 118.76 42.1602 118.76C40.7188 118.76 39.6758 119.357 39.0312 120.553V134H33.9512V114.98H38.7148ZM72.2363 126.811L75.752 114.98H81.2012L73.5547 136.953L73.1328 137.955C71.9961 140.439 70.1211 141.682 67.5078 141.682C66.7695 141.682 66.0195 141.57 65.2578 141.348V137.498L66.0312 137.516C66.9922 137.516 67.707 137.369 68.1758 137.076C68.6562 136.783 69.0312 136.297 69.3008 135.617L69.8984 134.053L63.2363 114.98H68.7031L72.2363 126.811Z" fill="#131746"/>
<path d="M83.4688 131.504C83.4688 130.695 83.7383 130.039 84.2773 129.535C84.8281 129.031 85.5137 128.779 86.334 128.779C87.166 128.779 87.8516 129.031 88.3906 129.535C88.9414 130.039 89.2168 130.695 89.2168 131.504C89.2168 132.301 88.9473 132.951 88.4082 133.455C87.8691 133.947 87.1777 134.193 86.334 134.193C85.502 134.193 84.8164 133.947 84.2773 133.455C83.7383 132.951 83.4688 132.301 83.4688 131.504Z" fill="black"/>
<path d="M108.465 128.727H99.2188L97.4609 134H91.8535L101.381 108.406H106.268L115.848 134H110.24L108.465 128.727ZM100.643 124.455H107.041L103.824 114.875L100.643 124.455ZM125.814 130.256C126.752 130.256 127.514 129.998 128.1 129.482C128.686 128.967 128.99 128.281 129.014 127.426H133.777C133.766 128.715 133.414 129.898 132.723 130.977C132.031 132.043 131.082 132.875 129.875 133.473C128.68 134.059 127.355 134.352 125.902 134.352C123.184 134.352 121.039 133.49 119.469 131.768C117.898 130.033 117.113 127.643 117.113 124.596V124.262C117.113 121.332 117.893 118.994 119.451 117.248C121.01 115.502 123.148 114.629 125.867 114.629C128.246 114.629 130.15 115.309 131.58 116.668C133.021 118.016 133.754 119.814 133.777 122.064H129.014C128.99 121.08 128.686 120.283 128.1 119.674C127.514 119.053 126.74 118.742 125.779 118.742C124.596 118.742 123.699 119.176 123.09 120.043C122.492 120.898 122.193 122.293 122.193 124.227V124.754C122.193 126.711 122.492 128.117 123.09 128.973C123.688 129.828 124.596 130.256 125.814 130.256ZM142.76 110.305V114.98H146.012V118.707H142.76V128.199C142.76 128.902 142.895 129.406 143.164 129.711C143.434 130.016 143.949 130.168 144.711 130.168C145.273 130.168 145.771 130.127 146.205 130.045V133.895C145.209 134.199 144.184 134.352 143.129 134.352C139.566 134.352 137.75 132.553 137.68 128.955V118.707H134.902V114.98H137.68V110.305H142.76ZM154.203 134H149.105V114.98H154.203V134ZM148.807 110.059C148.807 109.297 149.059 108.67 149.562 108.178C150.078 107.686 150.775 107.439 151.654 107.439C152.521 107.439 153.213 107.686 153.729 108.178C154.244 108.67 154.502 109.297 154.502 110.059C154.502 110.832 154.238 111.465 153.711 111.957C153.195 112.449 152.51 112.695 151.654 112.695C150.799 112.695 150.107 112.449 149.58 111.957C149.064 111.465 148.807 110.832 148.807 110.059ZM165.523 127.795L169.057 114.98H174.365L167.949 134H163.098L156.682 114.98H161.99L165.523 127.795ZM181.977 134H176.879V114.98H181.977V134ZM176.58 110.059C176.58 109.297 176.832 108.67 177.336 108.178C177.852 107.686 178.549 107.439 179.428 107.439C180.295 107.439 180.986 107.686 181.502 108.178C182.018 108.67 182.275 109.297 182.275 110.059C182.275 110.832 182.012 111.465 181.484 111.957C180.969 112.449 180.283 112.695 179.428 112.695C178.572 112.695 177.881 112.449 177.354 111.957C176.838 111.465 176.58 110.832 176.58 110.059ZM192.26 110.305V114.98H195.512V118.707H192.26V128.199C192.26 128.902 192.395 129.406 192.664 129.711C192.934 130.016 193.449 130.168 194.211 130.168C194.773 130.168 195.271 130.127 195.705 130.045V133.895C194.709 134.199 193.684 134.352 192.629 134.352C189.066 134.352 187.25 132.553 187.18 128.955V118.707H184.402V114.98H187.18V110.305H192.26ZM205.443 126.811L208.959 114.98H214.408L206.762 136.953L206.34 137.955C205.203 140.439 203.328 141.682 200.715 141.682C199.977 141.682 199.227 141.57 198.465 141.348V137.498L199.238 137.516C200.199 137.516 200.914 137.369 201.383 137.076C201.863 136.783 202.238 136.297 202.508 135.617L203.105 134.053L196.443 114.98H201.91L205.443 126.811Z" fill="white"/>
</svg>
