<svg width="182" height="35" viewBox="0 0 182 35" fill="none" xmlns="http://www.w3.org/2000/svg">
<path d="M5.71484 7.98047L5.87305 10.1074C7.2207 8.45508 9.04297 7.62891 11.3398 7.62891C13.7891 7.62891 15.4707 8.5957 16.3848 10.5293C17.7207 8.5957 19.625 7.62891 22.0977 7.62891C24.1602 7.62891 25.6953 8.23242 26.7031 9.43945C27.7109 10.6348 28.2148 12.4395 28.2148 14.8535V27H23.1172V14.8711C23.1172 13.793 22.9062 13.0078 22.4844 12.5156C22.0625 12.0117 21.3184 11.7598 20.252 11.7598C18.7285 11.7598 17.6738 12.4863 17.0879 13.9395L17.1055 27H12.0254V14.8887C12.0254 13.7871 11.8086 12.9902 11.375 12.498C10.9414 12.0059 10.2031 11.7598 9.16016 11.7598C7.71875 11.7598 6.67578 12.3574 6.03125 13.5527V27H0.951172V7.98047H5.71484ZM39.2363 19.8105L42.752 7.98047H48.2012L40.5547 29.9531L40.1328 30.9551C38.9961 33.4395 37.1211 34.6816 34.5078 34.6816C33.7695 34.6816 33.0195 34.5703 32.2578 34.3477V30.498L33.0312 30.5156C33.9922 30.5156 34.707 30.3691 35.1758 30.0762C35.6562 29.7832 36.0312 29.2969 36.3008 28.6172L36.8984 27.0527L30.2363 7.98047H35.7031L39.2363 19.8105Z" fill="#131746"/>
<path d="M50.4688 24.5039C50.4688 23.6953 50.7383 23.0391 51.2773 22.5352C51.8281 22.0312 52.5137 21.7793 53.334 21.7793C54.166 21.7793 54.8516 22.0312 55.3906 22.5352C55.9414 23.0391 56.2168 23.6953 56.2168 24.5039C56.2168 25.3008 55.9473 25.9512 55.4082 26.4551C54.8691 26.9473 54.1777 27.1934 53.334 27.1934C52.502 27.1934 51.8164 26.9473 51.2773 26.4551C50.7383 25.9512 50.4688 25.3008 50.4688 24.5039Z" fill="black"/>
<path d="M75.4648 21.7266H66.2188L64.4609 27H58.8535L68.3809 1.40625H73.2676L82.8477 27H77.2402L75.4648 21.7266ZM67.6426 17.4551H74.041L70.8242 7.875L67.6426 17.4551ZM92.8145 23.2559C93.752 23.2559 94.5137 22.998 95.0996 22.4824C95.6855 21.9668 95.9902 21.2812 96.0137 20.4258H100.777C100.766 21.7148 100.414 22.8984 99.7227 23.9766C99.0312 25.043 98.082 25.875 96.875 26.4727C95.6797 27.0586 94.3555 27.3516 92.9023 27.3516C90.1836 27.3516 88.0391 26.4902 86.4688 24.7676C84.8984 23.0332 84.1133 20.6426 84.1133 17.5957V17.2617C84.1133 14.332 84.8926 11.9941 86.4512 10.248C88.0098 8.50195 90.1484 7.62891 92.8672 7.62891C95.2461 7.62891 97.1504 8.30859 98.5801 9.66797C100.021 11.0156 100.754 12.8145 100.777 15.0645H96.0137C95.9902 14.0801 95.6855 13.2832 95.0996 12.6738C94.5137 12.0527 93.7402 11.7422 92.7793 11.7422C91.5957 11.7422 90.6992 12.1758 90.0898 13.043C89.4922 13.8984 89.1934 15.293 89.1934 17.2266V17.7539C89.1934 19.7109 89.4922 21.1172 90.0898 21.9727C90.6875 22.8281 91.5957 23.2559 92.8145 23.2559ZM109.76 3.30469V7.98047H113.012V11.707H109.76V21.1992C109.76 21.9023 109.895 22.4062 110.164 22.7109C110.434 23.0156 110.949 23.168 111.711 23.168C112.273 23.168 112.771 23.127 113.205 23.0449V26.8945C112.209 27.1992 111.184 27.3516 110.129 27.3516C106.566 27.3516 104.75 25.5527 104.68 21.9551V11.707H101.902V7.98047H104.68V3.30469H109.76ZM121.203 27H116.105V7.98047H121.203V27ZM115.807 3.05859C115.807 2.29688 116.059 1.66992 116.562 1.17773C117.078 0.685547 117.775 0.439453 118.654 0.439453C119.521 0.439453 120.213 0.685547 120.729 1.17773C121.244 1.66992 121.502 2.29688 121.502 3.05859C121.502 3.83203 121.238 4.46484 120.711 4.95703C120.195 5.44922 119.51 5.69531 118.654 5.69531C117.799 5.69531 117.107 5.44922 116.58 4.95703C116.064 4.46484 115.807 3.83203 115.807 3.05859ZM132.523 20.7949L136.057 7.98047H141.365L134.949 27H130.098L123.682 7.98047H128.99L132.523 20.7949ZM148.977 27H143.879V7.98047H148.977V27ZM143.58 3.05859C143.58 2.29688 143.832 1.66992 144.336 1.17773C144.852 0.685547 145.549 0.439453 146.428 0.439453C147.295 0.439453 147.986 0.685547 148.502 1.17773C149.018 1.66992 149.275 2.29688 149.275 3.05859C149.275 3.83203 149.012 4.46484 148.484 4.95703C147.969 5.44922 147.283 5.69531 146.428 5.69531C145.572 5.69531 144.881 5.44922 144.354 4.95703C143.838 4.46484 143.58 3.83203 143.58 3.05859ZM159.26 3.30469V7.98047H162.512V11.707H159.26V21.1992C159.26 21.9023 159.395 22.4062 159.664 22.7109C159.934 23.0156 160.449 23.168 161.211 23.168C161.773 23.168 162.271 23.127 162.705 23.0449V26.8945C161.709 27.1992 160.684 27.3516 159.629 27.3516C156.066 27.3516 154.25 25.5527 154.18 21.9551V11.707H151.402V7.98047H154.18V3.30469H159.26ZM172.443 19.8105L175.959 7.98047H181.408L173.762 29.9531L173.34 30.9551C172.203 33.4395 170.328 34.6816 167.715 34.6816C166.977 34.6816 166.227 34.5703 165.465 34.3477V30.498L166.238 30.5156C167.199 30.5156 167.914 30.3691 168.383 30.0762C168.863 29.7832 169.238 29.2969 169.508 28.6172L170.105 27.0527L163.443 7.98047H168.91L172.443 19.8105Z" fill="white"/>
</svg>
